<svg width="20" height="20" viewBox="0 0 20 20" fill="none" xmlns="http://www.w3.org/2000/svg">
<g clip-path="url(#clip0_1_4890)">
<path d="M20 10C20 4.47717 15.5228 0 10 0C4.47717 0 0 4.47717 0 10C0 14.9912 3.65684 19.1283 8.4375 19.8785V12.8906H5.89842V10H8.4375V7.79687C8.4375 5.29062 9.93046 3.90625 12.2147 3.90625C13.3084 3.90625 14.4531 4.10156 14.4531 4.10156V6.5625H13.1922C11.95 6.5625 11.5625 7.33342 11.5625 8.125V10H14.3359L13.8926 12.8906H11.5625V19.8785C16.3432 19.1283 20 14.9912 20 10Z" fill="#1877F2"/>
<path d="M13.8926 12.8906L14.3359 10H11.5625V8.125C11.5625 7.33417 11.95 6.5625 13.1922 6.5625H14.4531V4.10156C14.4531 4.10156 13.3088 3.90625 12.2147 3.90625C9.93048 3.90625 8.43752 5.29062 8.43752 7.79687V10H5.89844V12.8906H8.43752V19.8785C9.4729 20.0405 10.5271 20.0405 11.5625 19.8785V12.8906H13.8926Z" fill="white"/>
</g>
<defs>
<clipPath id="clip0_1_4890">
<rect width="20" height="20" fill="white"/>
</clipPath>
</defs>
</svg>
