<svg width="23" height="24" viewBox="0 0 23 24" fill="none" xmlns="http://www.w3.org/2000/svg">
<path fill-rule="evenodd" clip-rule="evenodd" d="M21.5439 6.9466L18.92 4.24716L15.5701 5.85472H13.6138C13.1365 5.85472 12.6624 5.77582 12.2108 5.62121L4.42237 2.95485C3.77633 2.73368 3.07333 3.0781 2.85216 3.72413C2.80803 3.85304 2.78551 3.98835 2.78551 4.1246V11.9897L0.525391 13.0743L1.1104 18.8499L4.02285 21.8825C4.80976 22.684 5.90538 23.1816 7.11724 23.1816L18.6685 23.1816C21.0609 23.1816 23.0002 21.2423 23.0002 18.8499V10.1865C23.0002 8.89753 22.4373 7.7401 21.5439 6.9466Z" fill="url(#paint0_linear_5_4946)"/>
<path fill-rule="evenodd" clip-rule="evenodd" d="M4.33173 20.293H15.883C18.2754 20.293 20.2147 18.3536 20.2147 15.9612V7.29778C20.2147 4.90543 18.2754 2.96605 15.883 2.96605H10.8283C10.351 2.96605 9.8769 2.88715 9.42529 2.73254L7.14692 1.95254L1.63686 0.0661774C0.990826 -0.154991 0.287819 0.189428 0.0666501 0.835461C0.0225202 0.964365 0 1.09968 0 1.23592L0 15.9612C0 18.3536 1.93938 20.293 4.33173 20.293Z" fill="#0076FF"/>
<path d="M5.77594 13.0734C6.57339 13.0734 7.21985 12.4269 7.21985 11.6295C7.21985 10.832 6.57339 10.1855 5.77594 10.1855C4.97849 10.1855 4.33203 10.832 4.33203 11.6295C4.33203 12.4269 4.97849 13.0734 5.77594 13.0734Z" fill="white"/>
<path d="M12.9957 13.0734C13.7931 13.0734 14.4396 12.4269 14.4396 11.6295C14.4396 10.832 13.7931 10.1855 12.9957 10.1855C12.1982 10.1855 11.5518 10.832 11.5518 11.6295C11.5518 12.4269 12.1982 13.0734 12.9957 13.0734Z" fill="white"/>
<defs>
<linearGradient id="paint0_linear_5_4946" x1="11.7628" y1="23.1816" x2="15.6017" y2="-4.23922" gradientUnits="userSpaceOnUse">
<stop stop-color="#00AEFF"/>
<stop offset="1" stop-color="#0076FF"/>
</linearGradient>
</defs>
</svg>
