<svg width="20" height="20" viewBox="0 0 20 20" fill="none" xmlns="http://www.w3.org/2000/svg">
<g clip-path="url(#clip0_1_4809)">
<path d="M10 20C15.5228 20 20 15.5228 20 10C20 4.47717 15.5228 0 10 0C4.47717 0 0 4.47717 0 10C0 15.5228 4.47717 20 10 20Z" fill="url(#paint0_linear_1_4809)"/>
<path fill-rule="evenodd" clip-rule="evenodd" d="M4.52587 9.89398C7.44108 8.62385 9.38499 7.78652 10.3577 7.38198C13.1347 6.22685 13.7118 6.02623 14.0879 6.0196C14.1707 6.01814 14.3556 6.03864 14.4754 6.13585C14.5766 6.21794 14.6044 6.32885 14.6177 6.40664C14.6311 6.48448 14.6477 6.66181 14.6345 6.80035C14.484 8.38156 13.8328 12.2188 13.5015 13.9898C13.3613 14.7392 13.0853 14.9905 12.8181 15.0151C12.2374 15.0685 11.7964 14.6313 11.234 14.2626C10.3538 13.6856 9.85662 13.3265 9.00229 12.7635C8.015 12.1129 8.65504 11.7553 9.2177 11.1709C9.36495 11.0179 11.9236 8.69064 11.9731 8.47952C11.9793 8.4531 11.9851 8.35469 11.9266 8.30273C11.8681 8.25077 11.7818 8.26852 11.7195 8.28264C11.6313 8.30269 10.2252 9.23202 7.5015 11.0706C7.10241 11.3447 6.74091 11.4782 6.41704 11.4712C6.05999 11.4635 5.37316 11.2694 4.86258 11.1034C4.23633 10.8998 3.73859 10.7922 3.78193 10.4464C3.8045 10.2664 4.05248 10.0822 4.52587 9.89398Z" fill="white"/>
</g>
<defs>
<linearGradient id="paint0_linear_1_4809" x1="10" y1="0" x2="10" y2="19.8517" gradientUnits="userSpaceOnUse">
<stop stop-color="#2AABEE"/>
<stop offset="1" stop-color="#229ED9"/>
</linearGradient>
<clipPath id="clip0_1_4809">
<rect width="20" height="20" fill="white"/>
</clipPath>
</defs>
</svg>
