<svg width="20" height="20" viewBox="0 0 20 20" fill="none" xmlns="http://www.w3.org/2000/svg">
<g clip-path="url(#clip0_1_4844)">
<path d="M18.3333 0H1.66667C0.746192 0 0 0.746192 0 1.66667V18.3333C0 19.2538 0.746192 20 1.66667 20H18.3333C19.2538 20 20 19.2538 20 18.3333V1.66667C20 0.746192 19.2538 0 18.3333 0Z" fill="black"/>
<path d="M8.5044 8.81951V8.30218C8.32715 8.27847 8.14695 8.26368 7.96086 8.26368C5.7424 8.26076 3.9375 10.0672 3.9375 12.2904C3.9375 13.6534 4.6169 14.8596 5.65674 15.5899C4.98615 14.8715 4.57557 13.9047 4.57557 12.8463C4.57557 10.6555 6.33024 8.86976 8.5044 8.81951Z" fill="#25F4EE"/>
<path d="M8.60211 14.6846C9.5917 14.6846 10.4011 13.8952 10.4366 12.9137L10.4395 4.14176H12.0406C12.0081 3.96141 11.9904 3.77515 11.9904 3.58594H9.80436L9.80141 12.3579C9.76599 13.3394 8.95657 14.1288 7.96699 14.1288C7.65978 14.1288 7.37028 14.0519 7.11328 13.9159C7.44411 14.3801 7.98766 14.6846 8.60211 14.6846Z" fill="#25F4EE"/>
<path d="M15.0322 7.11826V6.63047C14.4207 6.63047 13.8535 6.45009 13.375 6.13672C13.8004 6.62455 14.3764 6.97934 15.0322 7.11826Z" fill="#25F4EE"/>
<path d="M13.3752 6.13625C12.9085 5.60113 12.6278 4.90342 12.6278 4.14062H12.043C12.1936 4.97438 12.6899 5.68984 13.3752 6.13625Z" fill="#FE2C55"/>
<path d="M7.96242 10.4484C6.94917 10.4484 6.125 11.2733 6.125 12.2874C6.125 12.994 6.52675 13.6089 7.11167 13.9164C6.89304 13.6148 6.76308 13.2453 6.76308 12.8432C6.76308 11.8291 7.58725 11.0042 8.6005 11.0042C8.78954 11.0042 8.97267 11.0367 9.144 11.09V8.85491C8.96675 8.83124 8.78658 8.81641 8.6005 8.81641C8.568 8.81641 8.53846 8.81941 8.50596 8.81941V10.5342C8.33167 10.4809 8.15146 10.4484 7.96242 10.4484Z" fill="#FE2C55"/>
<path d="M15.0323 7.11914V8.8191C13.8979 8.8191 12.8463 8.45547 11.9896 7.84052V12.2901C11.9896 14.5104 10.1848 16.3198 7.96333 16.3198C7.10667 16.3198 6.30908 16.0478 5.65625 15.5895C6.39179 16.3788 7.44046 16.8756 8.60142 16.8756C10.8198 16.8756 12.6277 15.0691 12.6277 12.8458V8.39635C13.4844 9.01131 14.536 9.37493 15.6703 9.37493V7.18714C15.4488 7.18714 15.2361 7.16347 15.0323 7.11914Z" fill="#FE2C55"/>
<path d="M11.9888 12.2887V7.83917C12.8454 8.45413 13.8971 8.8178 15.0314 8.8178V7.1178C14.3756 6.97888 13.7996 6.62409 13.3742 6.13625C12.6888 5.68984 12.1956 4.97438 12.039 4.14062H10.4379L10.435 12.9125C10.3995 13.8941 9.59009 14.6835 8.60055 14.6835C7.98609 14.6835 7.44551 14.379 7.10876 13.9178C6.52384 13.6073 6.12209 12.9953 6.12209 12.2887C6.12209 11.2746 6.94626 10.4498 7.95951 10.4498C8.14855 10.4498 8.33172 10.4823 8.50305 10.5355V8.82075C6.32889 8.86805 4.57422 10.6538 4.57422 12.8445C4.57422 13.903 4.9848 14.8668 5.65539 15.5882C6.30822 16.0464 7.1058 16.3184 7.96247 16.3184C10.1809 16.3184 11.9888 14.509 11.9888 12.2887Z" fill="white"/>
</g>
<defs>
<clipPath id="clip0_1_4844">
<rect width="20" height="20" fill="white"/>
</clipPath>
</defs>
</svg>
