<svg width="20" height="20" viewBox="0 0 20 20" fill="none" xmlns="http://www.w3.org/2000/svg">
<g clip-path="url(#clip0_1_4828)">
<path d="M0 9.6C0 5.0745 0 2.81177 1.40589 1.40589C2.81177 0 5.0745 0 9.6 0H10.4C14.9255 0 17.1882 0 18.5941 1.40589C20 2.81177 20 5.0745 20 9.6V10.4C20 14.9255 20 17.1882 18.5941 18.5941C17.1882 20 14.9255 20 10.4 20H9.6C5.0745 20 2.81177 20 1.40589 18.5941C0 17.1882 0 14.9255 0 10.4V9.6Z" fill="#0077FF"/>
<path d="M10.6416 14.409C6.08329 14.409 3.48333 11.284 3.375 6.08398H5.65833C5.73333 9.90065 7.41663 11.5173 8.74996 11.8507V6.08398H10.9V9.37565C12.2167 9.23398 13.5999 7.73398 14.0665 6.08398H16.2166C15.8582 8.11732 14.3582 9.61732 13.2916 10.234C14.3582 10.734 16.0667 12.0423 16.7167 14.409H14.3499C13.8416 12.8257 12.575 11.6007 10.9 11.434V14.409H10.6416Z" fill="white"/>
</g>
<defs>
<clipPath id="clip0_1_4828">
<rect width="20" height="20" fill="white"/>
</clipPath>
</defs>
</svg>
