<svg width="29" height="20" viewBox="0 0 29 20" fill="none" xmlns="http://www.w3.org/2000/svg">
<g clip-path="url(#clip0_1_4862)">
<path d="M27.6449 3.12258C27.4853 2.51866 27.1707 1.96749 26.7326 1.52422C26.2945 1.08095 25.7483 0.761129 25.1486 0.596777C22.9412 0 14.1176 0 14.1176 0C14.1176 0 5.29412 0 3.08663 0.596777C2.48698 0.761129 1.94078 1.08095 1.50269 1.52422C1.06461 1.96749 0.750006 2.51866 0.590377 3.12258C0 5.35161 0 10 0 10C0 10 0 14.6484 0.590377 16.8774C0.750006 17.4814 1.06461 18.0325 1.50269 18.4758C1.94078 18.9191 2.48698 19.2389 3.08663 19.4032C5.29412 20 14.1176 20 14.1176 20C14.1176 20 22.9412 20 25.1486 19.4032C25.7483 19.2389 26.2945 18.9191 26.7326 18.4758C27.1707 18.0325 27.4853 17.4814 27.6449 16.8774C28.2353 14.6484 28.2353 10 28.2353 10C28.2353 10 28.2353 5.35161 27.6449 3.12258Z" fill="#FF0000"/>
<path d="M11.2305 14.2212L18.6102 10.0003L11.2305 5.7793V14.2212Z" fill="white"/>
</g>
<defs>
<clipPath id="clip0_1_4862">
<rect width="28.2353" height="20" fill="white"/>
</clipPath>
</defs>
</svg>
