<svg width="46" height="26" viewBox="0 0 46 26" fill="none" xmlns="http://www.w3.org/2000/svg">
<rect width="46" height="26" rx="4" fill="#F2F2F2"/>
<path d="M26.9265 5.92578H19.0508V20.0753H26.9265V5.92578Z" fill="#FF5A00"/>
<path d="M19.5754 13C19.5754 10.1252 20.9269 7.57379 23.0007 5.92524C21.4745 4.72524 19.5492 4 17.4492 4C12.4745 4 8.44922 8.02524 8.44922 13C8.44922 17.9748 12.4745 22 17.4492 22C19.5492 22 21.4745 21.2748 23.0007 20.0748C20.924 18.4495 19.5754 15.8748 19.5754 13Z" fill="#EB001B"/>
<path d="M37.5515 13C37.5515 17.9748 33.5262 22 28.5515 22C26.4515 22 24.5262 21.2748 23 20.0748C25.1 18.4233 26.4252 15.8748 26.4252 13C26.4252 10.1252 25.0738 7.57379 23 5.92524C24.5233 4.72524 26.4485 4 28.5485 4C33.5262 4 37.5515 8.05146 37.5515 13Z" fill="#F79E1B"/>
</svg>
