<svg width="46" height="26" viewBox="0 0 46 26" fill="none" xmlns="http://www.w3.org/2000/svg">
<rect width="46" height="26" rx="4" fill="#F2F2F2"/>
<g clip-path="url(#clip0_36_17956)">
<path d="M20.529 18.8273H17.5254L19.4041 7.21094H22.4075L20.529 18.8273Z" fill="#00579F"/>
<path d="M31.4163 7.49455C30.8238 7.25951 29.8842 7 28.7223 7C25.7561 7 23.6674 8.58171 23.6545 10.8431C23.6299 12.5115 25.15 13.4382 26.287 13.9945C27.449 14.563 27.844 14.934 27.844 15.4407C27.8322 16.2189 26.905 16.5777 26.0402 16.5777C24.8411 16.5777 24.1985 16.3927 23.2221 15.9598L22.8266 15.7742L22.4062 18.3818C23.1107 18.7027 24.4086 18.9875 25.7561 19C28.9077 19 30.9595 17.4428 30.9838 15.0329C30.9958 13.7105 30.1931 12.6973 28.4626 11.8693C27.4121 11.3378 26.7687 10.9794 26.7687 10.4356C26.781 9.9412 27.3128 9.43482 28.4987 9.43482C29.4752 9.41002 30.1926 9.64473 30.7361 9.87961L31.0078 10.003L31.4163 7.49455Z" fill="#00579F"/>
<path d="M35.4088 14.712C35.6562 14.0447 36.608 11.4619 36.608 11.4619C36.5955 11.4867 36.8548 10.7822 37.0032 10.3497L37.2131 11.3507C37.2131 11.3507 37.7819 14.1312 37.9054 14.712C37.436 14.712 36.0021 14.712 35.4088 14.712ZM39.1164 7.21094H36.7931C36.0766 7.21094 35.5323 7.42085 35.2232 8.17475L30.7617 18.8271H33.9133C33.9133 18.8271 34.4322 17.3934 34.5437 17.0846C34.8895 17.0846 37.9553 17.0846 38.4001 17.0846C38.4863 17.4924 38.7585 18.8271 38.7585 18.8271H41.5395L39.1164 7.21094Z" fill="#00579F"/>
<path d="M15.0153 7.21094L12.0737 15.1322L11.7523 13.5256C11.2085 11.6719 9.50292 9.65791 7.59961 8.65649L10.2939 18.8149H13.4702L18.1913 7.21094H15.0153Z" fill="#00579F"/>
<path d="M9.3429 7.21094H4.51038L4.46094 7.44565C8.23061 8.40962 10.7272 10.7332 11.7529 13.5261L10.7024 8.1874C10.5294 7.44548 9.99792 7.23541 9.3429 7.21094Z" fill="#FAA61A"/>
</g>
<defs>
<clipPath id="clip0_36_17956">
<rect width="37.0784" height="12" fill="white" transform="translate(4.46094 7)"/>
</clipPath>
</defs>
</svg>
